<svg width="616" height="116" viewBox="0 0 616 116" fill="none" xmlns="http://www.w3.org/2000/svg">
<path d="M146.526 28.0581V55.4263L163.604 28.0581H178.415L159.272 55.8295L180.582 87.9859H164.713L146.526 56.6864V87.9859H134.184V28.0581H146.526Z" fill="white"/>
<path d="M205.266 28.0581V87.9859H192.672V28.0581H205.266Z" fill="white"/>
<path d="M237.51 28.0581L248.996 52.0495C252.017 58.4504 254.335 64.7507 255.545 69.0348C255.092 64.3979 254.688 56.6864 254.587 52.5534L254.335 28.0581H265.822V87.9859H253.226L242.949 65.0531C239.575 57.5432 235.948 49.0757 234.839 45.3963C235.293 50.3358 235.342 57.3921 235.443 62.3819L235.796 87.9859H224.158V28.0581H237.51Z" fill="white"/>
<path d="M318.566 28.0581L317.004 37.8864H296.501V51.7974H313.681V61.6257H296.702V77.6535H319.372V87.9859H284.461V28.0581H318.566Z" fill="white"/>
<path d="M366.324 39.7016C363.303 37.4335 360.128 36.3245 356.753 36.3245C352.722 36.3245 348.743 38.2903 346.577 41.5161C344.26 44.9434 343.201 49.9835 343.201 56.939C343.201 65.1546 343.907 69.6907 345.721 72.9668C348.139 77.3517 352.119 79.6703 357.256 79.6703C360.783 79.6703 363.958 78.6118 367.533 75.7893L373.075 83.4C368.34 87.281 363.252 88.9947 356.452 88.9947C348.188 88.9947 341.791 86.3233 336.854 80.7288C332.018 75.2854 329.599 68.0274 329.599 59.2576C329.599 51.7477 330.91 45.8002 333.63 40.6088C338.264 31.8892 346.93 26.7483 356.552 26.7483C362.496 26.7483 368.441 28.6635 371.714 31.486L366.324 39.7016Z" fill="white"/>
<path d="M424.965 28.0581L422.999 38.0881H408.692V88.0364H396.451V38.0881H381.79V28.0581H424.965Z" fill="white"/>
<path d="M448.39 37.7357H452.723C455.644 37.7357 458.162 38.0886 459.523 38.5925C462.343 39.651 463.805 42.2214 463.805 45.9511C463.805 48.4713 462.949 50.5883 461.488 51.9994C459.825 53.461 457.608 53.9651 452.419 53.9651H448.39V37.7357ZM436.601 28.0585V87.9865H448.39V62.9872C449.146 63.088 449.7 63.2392 450.303 63.4911C452.471 64.4488 454.283 67.3721 460.229 78.1581C462.547 82.3919 463.503 84.0048 465.82 87.9865H480.028C480.028 87.9865 469.094 68.985 465.619 64.7008C464.864 63.6423 464.31 63.1383 463.101 62.1807C470.506 62.0295 476.45 54.57 476.45 45.5985C476.45 35.0643 469.447 28.0081 458.868 28.0081H436.601V28.0585Z" fill="white"/>
<path d="M505.166 28.0581V87.9859H492.571V28.0581H505.166Z" fill="white"/>
<path d="M556.198 39.7016C553.177 37.4335 550.002 36.3245 546.627 36.3245C542.596 36.3245 538.616 38.2903 536.451 41.5161C534.133 44.9434 533.076 49.9835 533.076 56.939C533.076 65.1546 533.78 69.6907 535.595 72.9668C538.013 77.3517 541.992 79.6703 547.13 79.6703C550.656 79.6703 553.881 78.6118 557.407 75.7893L562.949 83.4C558.214 87.281 553.125 88.9947 546.325 88.9947C538.062 88.9947 531.664 86.3233 526.777 80.7288C521.941 75.2854 519.523 68.0274 519.523 59.2576C519.523 51.7477 520.833 45.8002 523.555 40.6088C528.189 31.8892 536.853 26.7483 546.475 26.7483C552.419 26.7483 558.365 28.6635 561.639 31.486L556.198 39.7016Z" fill="white"/>
<path d="M609.096 40.9106C603.655 37.6345 599.624 36.3239 595.141 36.3239C590.204 36.3239 586.779 39.1464 586.779 43.2292C586.779 46.354 588.39 47.8661 593.429 49.2774L600.683 51.243C610.506 53.9144 615.847 60.2145 615.847 69.0853C615.847 81.2323 606.023 89.2461 591.112 89.2461C584.31 89.2461 576.703 87.2804 570.658 83.8027L575.141 74.3776C580.732 77.3009 585.57 79.2161 591.615 79.2161C598.517 79.2161 602.144 76.3936 602.144 71.0007C602.144 67.1197 599.624 64.7004 594.285 63.2388L587.635 61.4243C581.691 59.8114 577.961 57.4425 575.847 53.8136C574.184 51.1422 573.327 48.0174 573.327 44.6908C573.327 33.7535 582.144 26.1428 594.788 26.1428C602.093 26.1428 609.55 28.3604 614.788 32.1911L609.096 40.9106Z" fill="white"/>
<path d="M87.4921 5.835C66.9984 5.35079 34.7784 20.7487 34.9997 20.5135C38.346 16.9996 44.8039 9.63953 45.2742 6.9971C45.5644 6.44373 45.1772 5.87651 45.1772 5.87651C44.7072 4.3962 40.1715 0.32881 39.9087 0.0797867C39.5906 -0.127733 39.563 0.135126 39.563 0.135126C37.7792 6.3884 19.4841 21.0807 21.1574 28.0949C24.6698 39.4948 34.8475 39.0935 34.8475 39.0935C39.9087 39.5777 50.5012 37.7239 55.5347 39.4118C55.5763 39.4118 55.5763 39.4394 55.5763 39.4394C55.7284 39.3979 55.6315 39.1074 55.6315 39.1074C54.2764 36.4097 51.5521 32.8402 50.0864 32.5773C40.3374 30.6959 38.2631 33.2415 27.1728 31.9134C27.311 30.0872 31.6393 24.5809 31.6532 24.4565C33.1329 26.6147 33.7275 27.9151 35.9261 29.4646C36.3963 29.755 36.825 29.3678 36.825 29.3678C46.007 24.3319 57.4431 20.3337 57.4431 20.3337C76.8859 13.2365 93.0926 10.2067 103.035 14.786C105.746 23.5987 98.0431 36.534 96.8124 38.5817C86.8008 55.9303 38.1801 100.824 0 115.419H26.5228C36.5485 112.929 131.48 42.1232 104.363 13.1535C100.104 8.83712 96.5635 5.95951 87.4921 5.835Z" fill="#F99B26"/>
<path d="M19.6452 62.7446C16.0023 60.949 10.1634 52.7716 10.3959 50.6583C14.1938 30.0356 3.76902 7.47919 3.21355 4.50941C3.21355 4.50941 2.59348 3.3215 4.23406 4.19171C6.3526 6.1117 8.17403 7.93501 11.171 12.3551C12.9278 14.3718 24.7477 44.3459 19.6452 62.7446Z" fill="#F99B26"/>
</svg>
